<svg width="24" height="33" viewBox="0 0 24 33" fill="none" xmlns="http://www.w3.org/2000/svg">
<path d="M15.4214 11.7257C15.4214 13.9142 13.7126 15.5887 11.7259 15.5887C9.73927 15.5887 8.03052 13.9142 8.03052 11.7257C8.03052 9.53725 9.73927 7.86279 11.7259 7.86279C13.7126 7.86279 15.4214 9.53725 15.4214 11.7257Z" stroke="#0C58A2" stroke-width="4"/>
<path d="M21.4518 11.7259C21.4518 12.9862 21.0168 14.8585 20.1916 17.0877C19.3831 19.2719 18.2629 21.6332 17.0388 23.8117C15.8107 25.9972 14.5127 27.9371 13.3684 29.3013C12.7925 29.9879 12.3008 30.4741 11.9181 30.7709C11.8425 30.8295 11.7785 30.875 11.7259 30.91C11.6732 30.875 11.6093 30.8295 11.5337 30.7709C11.1509 30.4741 10.6592 29.9879 10.0833 29.3013C8.93904 27.9371 7.64105 25.9972 6.41301 23.8117C5.18892 21.6332 4.06873 19.2719 3.26022 17.0877C2.43501 14.8585 2 12.9862 2 11.7259C2 6.35443 6.35443 2 11.7259 2C17.0973 2 21.4518 6.35443 21.4518 11.7259Z" stroke="#0C58A2" stroke-width="4"/>
</svg>
