<svg width="101" height="61" viewBox="0 0 101 61" fill="none" xmlns="http://www.w3.org/2000/svg">
<rect width="101" height="61" rx="20" fill="#D9D9D9"/>
<path d="M21.19 36.6C21.17 36.7 21.15 36.8 21.13 36.9C21.13 36.98 21.13 37.07 21.13 37.17L20.95 37.8C20.91 37.88 20.88 37.93 20.86 37.95L20.77 38.13C20.67 38.35 20.49 38.53 20.23 38.67C19.75 38.91 19.24 38.97 18.7 38.85C18.36 38.81 18.09 38.71 17.89 38.55C17.69 38.41 17.55 38.24 17.47 38.04C17.39 37.84 17.33 37.64 17.29 37.44C17.23 37.24 17.2 37.06 17.2 36.9V20.1C17.2 19.96 17.2 19.84 17.2 19.74C17.22 19.62 17.24 19.51 17.26 19.41C17.28 19.27 17.3 19.15 17.32 19.05C17.36 18.95 17.4 18.84 17.44 18.72C17.5 18.52 17.61 18.36 17.77 18.24C18.01 18.06 18.24 17.96 18.46 17.94C18.6 17.9 18.73 17.88 18.85 17.88C18.97 17.86 19.11 17.85 19.27 17.85C19.55 17.85 19.87 17.93 20.23 18.09C20.51 18.25 20.71 18.47 20.83 18.75C21.03 19.15 21.13 19.52 21.13 19.86C21.15 20.06 21.16 20.36 21.16 20.76C21.18 21.16 21.19 21.46 21.19 21.66V21.78C21.23 22.42 21.25 23.04 21.25 23.64C21.25 24.22 21.24 24.86 21.22 25.56C21.22 26.24 21.21 26.9 21.19 27.54C21.19 28.16 21.19 28.78 21.19 29.4V35.7C21.19 35.78 21.19 35.86 21.19 35.94C21.21 36 21.22 36.07 21.22 36.15C21.22 36.35 21.21 36.5 21.19 36.6ZM31.3553 18.48C32.6953 17.98 33.9053 17.76 34.9853 17.82C36.0853 17.88 37.0653 18.16 37.9253 18.66C38.7853 19.14 39.5153 19.79 40.1153 20.61C40.7353 21.43 41.2353 22.35 41.6153 23.37C41.9153 24.13 42.1453 24.93 42.3053 25.77C42.4653 26.61 42.5553 27.45 42.5753 28.29C42.6153 29.11 42.5853 29.92 42.4853 30.72C42.4053 31.52 42.2653 32.26 42.0653 32.94C41.9453 33.4 41.8053 33.82 41.6453 34.2C41.4853 34.58 41.2953 34.96 41.0753 35.34C40.5753 36.2 39.9253 36.9 39.1253 37.44C38.3453 37.98 37.4853 38.36 36.5453 38.58C35.9053 38.74 35.2453 38.82 34.5653 38.82C33.8853 38.8 33.2153 38.71 32.5553 38.55C31.8953 38.37 31.2553 38.12 30.6353 37.8C30.0353 37.46 29.4853 37.04 28.9853 36.54C28.3653 35.94 27.8553 35.25 27.4553 34.47C27.0553 33.67 26.7453 32.84 26.5253 31.98C26.3053 31.1 26.1653 30.22 26.1053 29.34C26.0453 28.46 26.0453 27.62 26.1053 26.82C26.1653 26.08 26.3053 25.29 26.5253 24.45C26.7653 23.61 27.1053 22.8 27.5453 22.02C27.9853 21.24 28.5153 20.54 29.1353 19.92C29.7753 19.28 30.5153 18.8 31.3553 18.48ZM38.3753 31.32C38.6153 30.38 38.7153 29.32 38.6753 28.14C38.6353 26.96 38.4453 25.85 38.1053 24.81C37.8853 24.17 37.6053 23.61 37.2653 23.13C36.9453 22.63 36.5553 22.25 36.0953 21.99C35.6553 21.73 35.1353 21.6 34.5353 21.6C33.9353 21.6 33.2653 21.78 32.5253 22.14C32.0853 22.36 31.7053 22.66 31.3853 23.04C31.0853 23.42 30.8353 23.85 30.6353 24.33C30.4553 24.81 30.3053 25.31 30.1853 25.83C30.0853 26.35 30.0253 26.85 30.0053 27.33C29.9653 27.85 29.9553 28.4 29.9753 28.98C29.9953 29.54 30.0553 30.11 30.1553 30.69C30.2753 31.25 30.4353 31.79 30.6353 32.31C30.8353 32.81 31.1053 33.26 31.4453 33.66C31.9653 34.26 32.5653 34.68 33.2453 34.92C33.9453 35.14 34.6353 35.17 35.3153 35.01C36.4153 34.77 37.2553 34.04 37.8353 32.82C38.0753 32.38 38.2553 31.88 38.3753 31.32ZM63.2997 31.86C63.2997 32.46 63.2697 33.07 63.2097 33.69C63.1497 34.29 63.0297 34.88 62.8497 35.46C62.6697 36.02 62.3997 36.56 62.0397 37.08C61.6797 37.58 61.1897 38.02 60.5697 38.4C60.2697 38.6 59.9097 38.77 59.4897 38.91C59.0897 39.03 58.6597 39.13 58.1997 39.21C57.7597 39.31 57.3197 39.37 56.8797 39.39C56.4397 39.43 56.0297 39.44 55.6497 39.42C53.8497 39.36 52.3897 38.93 51.2697 38.13C50.1697 37.31 49.3197 36.3 48.7197 35.1C48.1397 33.9 47.7597 32.6 47.5797 31.2C47.4197 29.78 47.3897 28.43 47.4897 27.15C47.5497 26.39 47.6797 25.57 47.8797 24.69C48.0997 23.81 48.4097 22.96 48.8097 22.14C49.2297 21.32 49.7397 20.58 50.3397 19.92C50.9597 19.26 51.6897 18.76 52.5297 18.42C53.3097 18.1 54.1597 17.9 55.0797 17.82C56.0197 17.72 56.9397 17.75 57.8397 17.91C58.7597 18.07 59.6097 18.36 60.3897 18.78C61.1897 19.2 61.8197 19.76 62.2797 20.46C62.5997 20.98 62.8497 21.61 63.0297 22.35C63.2097 23.09 63.2397 23.8 63.1197 24.48C63.0197 25.08 62.8097 25.5 62.4897 25.74C62.1697 25.96 61.8197 26.05 61.4397 26.01C61.0597 25.95 60.6897 25.79 60.3297 25.53C59.9897 25.25 59.7597 24.9 59.6397 24.48C59.4997 24.02 59.3297 23.6 59.1297 23.22C58.9297 22.82 58.6197 22.49 58.1997 22.23C57.7197 21.93 57.2097 21.76 56.6697 21.72C56.1497 21.68 55.6397 21.74 55.1397 21.9C54.6597 22.06 54.1997 22.31 53.7597 22.65C53.3397 22.99 52.9897 23.38 52.7097 23.82C52.3697 24.32 52.1097 24.87 51.9297 25.47C51.7497 26.05 51.6197 26.66 51.5397 27.3C51.4597 27.92 51.4297 28.55 51.4497 29.19C51.4897 29.81 51.5697 30.41 51.6897 30.99C51.9097 31.97 52.2497 32.89 52.7097 33.75C52.8897 34.07 53.1297 34.36 53.4297 34.62C53.7497 34.86 54.0997 35.06 54.4797 35.22C54.8597 35.36 55.2597 35.45 55.6797 35.49C56.0997 35.53 56.4997 35.5 56.8797 35.4C57.4197 35.26 57.8597 35.08 58.1997 34.86C58.5397 34.62 58.8097 34.34 59.0097 34.02C59.2097 33.7 59.3397 33.35 59.3997 32.97C59.4797 32.59 59.5197 32.19 59.5197 31.77V31.74C59.2597 31.74 59.0297 31.74 58.8297 31.74C58.6297 31.72 58.4797 31.71 58.3797 31.71C57.9397 31.71 57.5097 31.63 57.0897 31.47C56.7297 31.35 56.4597 31.16 56.2797 30.9C56.0797 30.68 55.9797 30.41 55.9797 30.09C55.9797 29.97 55.9797 29.86 55.9797 29.76C55.9997 29.64 56.0197 29.52 56.0397 29.4C56.0997 29.24 56.2297 29.04 56.4297 28.8C56.5497 28.7 56.7397 28.62 56.9997 28.56C57.1197 28.52 57.2397 28.49 57.3597 28.47C57.4797 28.43 57.6197 28.4 57.7797 28.38C57.8997 28.36 58.0297 28.35 58.1697 28.35C58.3097 28.35 58.4497 28.35 58.5897 28.35H61.3197C61.5397 28.33 61.7897 28.36 62.0697 28.44C62.3697 28.5 62.5997 28.6 62.7597 28.74C62.8197 28.82 62.8797 28.9 62.9397 28.98C62.9997 29.06 63.0497 29.15 63.0897 29.25C63.1697 29.47 63.2197 29.69 63.2397 29.91C63.2597 30.03 63.2697 30.16 63.2697 30.3C63.2897 30.42 63.2997 30.53 63.2997 30.63V31.86ZM73.4209 18.48C74.7609 17.98 75.9709 17.76 77.0509 17.82C78.1509 17.88 79.1309 18.16 79.9909 18.66C80.8509 19.14 81.5809 19.79 82.1809 20.61C82.8009 21.43 83.3009 22.35 83.6809 23.37C83.9809 24.13 84.2109 24.93 84.3709 25.77C84.5309 26.61 84.6209 27.45 84.6409 28.29C84.6809 29.11 84.6509 29.92 84.5509 30.72C84.4709 31.52 84.3309 32.26 84.1309 32.94C84.0109 33.4 83.8709 33.82 83.7109 34.2C83.5509 34.58 83.3609 34.96 83.1409 35.34C82.6409 36.2 81.9909 36.9 81.1909 37.44C80.4109 37.98 79.5509 38.36 78.6109 38.58C77.9709 38.74 77.3109 38.82 76.6309 38.82C75.9509 38.8 75.2809 38.71 74.6209 38.55C73.9609 38.37 73.3209 38.12 72.7009 37.8C72.1009 37.46 71.5509 37.04 71.0509 36.54C70.4309 35.94 69.9209 35.25 69.5209 34.47C69.1209 33.67 68.8109 32.84 68.5909 31.98C68.3709 31.1 68.2309 30.22 68.1709 29.34C68.1109 28.46 68.1109 27.62 68.1709 26.82C68.2309 26.08 68.3709 25.29 68.5909 24.45C68.8309 23.61 69.1709 22.8 69.6109 22.02C70.0509 21.24 70.5809 20.54 71.2009 19.92C71.8409 19.28 72.5809 18.8 73.4209 18.48ZM80.4409 31.32C80.6809 30.38 80.7809 29.32 80.7409 28.14C80.7009 26.96 80.5109 25.85 80.1709 24.81C79.9509 24.17 79.6709 23.61 79.3309 23.13C79.0109 22.63 78.6209 22.25 78.1609 21.99C77.7209 21.73 77.2009 21.6 76.6009 21.6C76.0009 21.6 75.3309 21.78 74.5909 22.14C74.1509 22.36 73.7709 22.66 73.4509 23.04C73.1509 23.42 72.9009 23.85 72.7009 24.33C72.5209 24.81 72.3709 25.31 72.2509 25.83C72.1509 26.35 72.0909 26.85 72.0709 27.33C72.0309 27.85 72.0209 28.4 72.0409 28.98C72.0609 29.54 72.1209 30.11 72.2209 30.69C72.3409 31.25 72.5009 31.79 72.7009 32.31C72.9009 32.81 73.1709 33.26 73.5109 33.66C74.0309 34.26 74.6309 34.68 75.3109 34.92C76.0109 35.14 76.7009 35.17 77.3809 35.01C78.4809 34.77 79.3209 34.04 79.9009 32.82C80.1409 32.38 80.3209 31.88 80.4409 31.32Z" fill="black"/>
</svg>
