<svg width="36" height="36" viewBox="0 0 36 36" fill="none" xmlns="http://www.w3.org/2000/svg">
<path fill-rule="evenodd" clip-rule="evenodd" d="M18 36C27.9411 36 36 27.9411 36 18C36 8.05887 27.9411 0 18 0C8.05887 0 0 8.05887 0 18C0 27.9411 8.05887 36 18 36ZM6.00018 17.9998C6.00018 16.8952 6.89561 15.9998 8.00018 15.9998H16.0004V7.99915C16.0004 6.89458 16.8959 5.99915 18.0004 5.99915C19.105 5.99915 20.0004 6.89458 20.0004 7.99915V15.9998H28.0002C29.1048 15.9998 30.0002 16.8952 30.0002 17.9998C30.0002 19.1043 29.1048 19.9998 28.0002 19.9998H20.0004V27.9991C20.0004 29.1037 19.105 29.9991 18.0004 29.9991C16.8959 29.9991 16.0004 29.1037 16.0004 27.9991V19.9998H8.00018C6.89561 19.9998 6.00018 19.1043 6.00018 17.9998Z" fill="#0C58A2"/>
</svg>
