<svg width="28" height="34" viewBox="0 0 28 34" fill="none" xmlns="http://www.w3.org/2000/svg">
<path fill-rule="evenodd" clip-rule="evenodd" d="M5.5174 13.7367C4.60472 11.1919 5.41415 8.24732 7.69905 6.55579C9.98394 4.86426 13.0366 4.94974 15.2041 6.56558L12.899 8.27202C11.757 8.13046 10.5608 8.41022 9.56285 9.14899C8.56493 9.88776 7.94813 10.9502 7.75012 12.0838L5.5174 13.7367Z" fill="#0C58A2"/>
<path fill-rule="evenodd" clip-rule="evenodd" d="M15.6017 21.4604C14.2464 22.0439 12.7527 22.367 11.1835 22.367C5.00703 22.367 0 17.36 0 11.1835C0 5.00703 5.00703 0 11.1835 0C17.36 0 22.367 5.00703 22.367 11.1835C22.367 14.0189 21.3119 16.6078 19.5728 18.5791L19.6516 18.5251L21.0633 20.5884L27.5633 30.0884C28.343 31.2279 28.0513 32.7837 26.9118 33.5634C25.7723 34.343 24.2165 34.0513 23.4368 32.9118L16.9368 23.4118L15.6017 21.4604ZM19.4422 11.1834C19.4422 15.7445 15.7447 19.442 11.1836 19.442C6.62246 19.442 2.92496 15.7445 2.92496 11.1834C2.92496 6.62233 6.62246 2.92483 11.1836 2.92483C15.7447 2.92483 19.4422 6.62233 19.4422 11.1834Z" fill="#0C58A2"/>
</svg>
