<svg width="36" height="36" viewBox="0 0 36 36" fill="none" xmlns="http://www.w3.org/2000/svg">
<g clip-path="url(#clip0_143_435)">
<rect x="-9" y="33.1538" width="46" height="2.84615" fill="#B00036"/>
<rect x="-9" y="21.7695" width="46" height="2.84615" fill="#B00036"/>
<rect x="-9" y="10.3845" width="46" height="2.84615" fill="#B00036"/>
<rect x="-9" y="27.4617" width="46" height="2.84615" fill="#B00036"/>
<rect x="-9" y="16.0767" width="46" height="2.84615" fill="#B00036"/>
<rect x="-9" y="4.69238" width="46" height="2.84615" fill="#B00036"/>
<rect x="-9" y="-1" width="46" height="2.84615" fill="#B00036"/>
<rect x="-9" y="30.3076" width="46" height="2.84615" fill="white"/>
<rect x="-9" y="18.9233" width="46" height="2.84615" fill="white"/>
<rect x="-9" y="7.53833" width="46" height="2.84615" fill="white"/>
<rect x="-9" y="24.6155" width="46" height="2.84615" fill="white"/>
<rect x="-9" y="13.2305" width="46" height="2.84615" fill="white"/>
<rect x="-9" y="1.84619" width="46" height="2.84615" fill="white"/>
<rect x="-9" y="-1" width="27.0533" height="19.3846" fill="#0A3161"/>
<path d="M1.17416 0.278076L1.38773 0.935382H2.07887L1.51973 1.34162L1.7333 1.99893L1.17416 1.59269L0.615025 1.99893L0.828597 1.34162L0.269458 0.935382H0.960591L1.17416 0.278076Z" fill="#D9D9D9"/>
<path d="M5.3602 0.278076L5.57377 0.935382H6.2649L5.70576 1.34162L5.91934 1.99893L5.3602 1.59269L4.80106 1.99893L5.01463 1.34162L4.45549 0.935382H5.14663L5.3602 0.278076Z" fill="#D9D9D9"/>
<path d="M9.5455 0.278076L9.75907 0.935382H10.4502L9.89107 1.34162L10.1046 1.99893L9.5455 1.59269L8.98636 1.99893L9.19993 1.34162L8.6408 0.935382H9.33193L9.5455 0.278076Z" fill="#D9D9D9"/>
<path d="M13.731 0.278076L13.9446 0.935382H14.6358L14.0766 1.34162L14.2902 1.99893L13.731 1.59269L13.1719 1.99893L13.3855 1.34162L12.8263 0.935382H13.5175L13.731 0.278076Z" fill="#D9D9D9"/>
<path d="M1.17416 7.88818L1.38773 8.54549H2.07887L1.51973 8.95173L1.7333 9.60903L1.17416 9.2028L0.615025 9.60903L0.828597 8.95173L0.269458 8.54549H0.960591L1.17416 7.88818Z" fill="#D9D9D9"/>
<path d="M5.3602 7.88818L5.57377 8.54549H6.2649L5.70576 8.95173L5.91934 9.60903L5.3602 9.2028L4.80106 9.60903L5.01463 8.95173L4.45549 8.54549H5.14663L5.3602 7.88818Z" fill="#D9D9D9"/>
<path d="M9.5455 7.88818L9.75907 8.54549H10.4502L9.89107 8.95173L10.1046 9.60903L9.5455 9.2028L8.98636 9.60903L9.19993 8.95173L8.6408 8.54549H9.33193L9.5455 7.88818Z" fill="#D9D9D9"/>
<path d="M13.731 7.88818L13.9446 8.54549H14.6358L14.0766 8.95173L14.2902 9.60903L13.731 9.2028L13.1719 9.60903L13.3855 8.95173L12.8263 8.54549H13.5175L13.731 7.88818Z" fill="#D9D9D9"/>
<path d="M1.17416 4.08301L1.38773 4.74031H2.07887L1.51973 5.14655L1.7333 5.80386L1.17416 5.39762L0.615025 5.80386L0.828597 5.14655L0.269458 4.74031H0.960591L1.17416 4.08301Z" fill="#D9D9D9"/>
<path d="M5.3602 4.08301L5.57377 4.74031H6.2649L5.70576 5.14655L5.91934 5.80386L5.3602 5.39762L4.80106 5.80386L5.01463 5.14655L4.45549 4.74031H5.14663L5.3602 4.08301Z" fill="#D9D9D9"/>
<path d="M9.5455 4.08301L9.75907 4.74031H10.4502L9.89107 5.14655L10.1046 5.80386L9.5455 5.39762L8.98636 5.80386L9.19993 5.14655L8.6408 4.74031H9.33193L9.5455 4.08301Z" fill="#D9D9D9"/>
<path d="M13.731 4.08301L13.9446 4.74031H14.6358L14.0766 5.14655L14.2902 5.80386L13.731 5.39762L13.1719 5.80386L13.3855 5.14655L12.8263 4.74031H13.5175L13.731 4.08301Z" fill="#D9D9D9"/>
<path d="M1.17416 11.6934L1.38773 12.3507H2.07887L1.51973 12.7569L1.7333 13.4142L1.17416 13.008L0.615025 13.4142L0.828597 12.7569L0.269458 12.3507H0.960591L1.17416 11.6934Z" fill="#D9D9D9"/>
<path d="M5.3602 11.6934L5.57377 12.3507H6.2649L5.70576 12.7569L5.91934 13.4142L5.3602 13.008L4.80106 13.4142L5.01463 12.7569L4.45549 12.3507H5.14663L5.3602 11.6934Z" fill="#D9D9D9"/>
<path d="M9.5455 11.6934L9.75907 12.3507H10.4502L9.89107 12.7569L10.1046 13.4142L9.5455 13.008L8.98636 13.4142L9.19993 12.7569L8.6408 12.3507H9.33193L9.5455 11.6934Z" fill="#D9D9D9"/>
<path d="M13.731 11.6934L13.9446 12.3507H14.6358L14.0766 12.7569L14.2902 13.4142L13.731 13.008L13.1719 13.4142L13.3855 12.7569L12.8263 12.3507H13.5175L13.731 11.6934Z" fill="#D9D9D9"/>
<path d="M1.17416 15.4983L1.38773 16.1556H2.07887L1.51973 16.5618L1.7333 17.2191L1.17416 16.8129L0.615025 17.2191L0.828597 16.5618L0.269458 16.1556H0.960591L1.17416 15.4983Z" fill="#D9D9D9"/>
<path d="M5.3602 15.4983L5.57377 16.1556H6.2649L5.70576 16.5618L5.91934 17.2191L5.3602 16.8129L4.80106 17.2191L5.01463 16.5618L4.45549 16.1556H5.14663L5.3602 15.4983Z" fill="#D9D9D9"/>
<path d="M9.5455 15.4983L9.75907 16.1556H10.4502L9.89107 16.5618L10.1046 17.2191L9.5455 16.8129L8.98636 17.2191L9.19993 16.5618L8.6408 16.1556H9.33193L9.5455 15.4983Z" fill="#D9D9D9"/>
<path d="M13.731 15.4983L13.9446 16.1556H14.6358L14.0766 16.5618L14.2902 17.2191L13.731 16.8129L13.1719 17.2191L13.3855 16.5618L12.8263 16.1556H13.5175L13.731 15.4983Z" fill="#D9D9D9"/>
<path d="M3.26694 2.18066L3.48051 2.83797H4.17164L3.6125 3.24421L3.82607 3.90151L3.26694 3.49528L2.7078 3.90151L2.92137 3.24421L2.36223 2.83797H3.05336L3.26694 2.18066Z" fill="#D9D9D9"/>
<path d="M7.45273 2.18066L7.6663 2.83797H8.35743L7.79829 3.24421L8.01187 3.90151L7.45273 3.49528L6.89359 3.90151L7.10716 3.24421L6.54802 2.83797H7.23916L7.45273 2.18066Z" fill="#D9D9D9"/>
<path d="M11.6385 2.18066L11.8521 2.83797H12.5432L11.9841 3.24421L12.1977 3.90151L11.6385 3.49528L11.0794 3.90151L11.293 3.24421L10.7338 2.83797H11.4249L11.6385 2.18066Z" fill="#D9D9D9"/>
<path d="M15.8238 2.18066L16.0374 2.83797H16.7285L16.1694 3.24421L16.383 3.90151L15.8238 3.49528L15.2647 3.90151L15.4783 3.24421L14.9191 2.83797H15.6102L15.8238 2.18066Z" fill="#D9D9D9"/>
<path d="M3.26694 9.79077L3.48051 10.4481H4.17164L3.6125 10.8543L3.82607 11.5116L3.26694 11.1054L2.7078 11.5116L2.92137 10.8543L2.36223 10.4481H3.05336L3.26694 9.79077Z" fill="#D9D9D9"/>
<path d="M7.45273 9.79077L7.6663 10.4481H8.35743L7.79829 10.8543L8.01187 11.5116L7.45273 11.1054L6.89359 11.5116L7.10716 10.8543L6.54802 10.4481H7.23916L7.45273 9.79077Z" fill="#D9D9D9"/>
<path d="M11.6385 9.79077L11.8521 10.4481H12.5432L11.9841 10.8543L12.1977 11.5116L11.6385 11.1054L11.0794 11.5116L11.293 10.8543L10.7338 10.4481H11.4249L11.6385 9.79077Z" fill="#D9D9D9"/>
<path d="M15.8238 9.79077L16.0374 10.4481H16.7285L16.1694 10.8543L16.383 11.5116L15.8238 11.1054L15.2647 11.5116L15.4783 10.8543L14.9191 10.4481H15.6102L15.8238 9.79077Z" fill="#D9D9D9"/>
<path d="M3.26694 5.98584L3.48051 6.64315H4.17164L3.6125 7.04938L3.82607 7.70669L3.26694 7.30045L2.7078 7.70669L2.92137 7.04938L2.36223 6.64315H3.05336L3.26694 5.98584Z" fill="#D9D9D9"/>
<path d="M7.45273 5.98584L7.6663 6.64315H8.35743L7.79829 7.04938L8.01187 7.70669L7.45273 7.30045L6.89359 7.70669L7.10716 7.04938L6.54802 6.64315H7.23916L7.45273 5.98584Z" fill="#D9D9D9"/>
<path d="M11.6385 5.98584L11.8521 6.64315H12.5432L11.9841 7.04938L12.1977 7.70669L11.6385 7.30045L11.0794 7.70669L11.293 7.04938L10.7338 6.64315H11.4249L11.6385 5.98584Z" fill="#D9D9D9"/>
<path d="M15.8238 5.98584L16.0374 6.64315H16.7285L16.1694 7.04938L16.383 7.70669L15.8238 7.30045L15.2647 7.70669L15.4783 7.04938L14.9191 6.64315H15.6102L15.8238 5.98584Z" fill="#D9D9D9"/>
<path d="M3.26694 13.5959L3.48051 14.2533H4.17164L3.6125 14.6595L3.82607 15.3168L3.26694 14.9106L2.7078 15.3168L2.92137 14.6595L2.36223 14.2533H3.05336L3.26694 13.5959Z" fill="#D9D9D9"/>
<path d="M7.45273 13.5959L7.6663 14.2533H8.35743L7.79829 14.6595L8.01187 15.3168L7.45273 14.9106L6.89359 15.3168L7.10716 14.6595L6.54802 14.2533H7.23916L7.45273 13.5959Z" fill="#D9D9D9"/>
<path d="M11.6385 13.5959L11.8521 14.2533H12.5432L11.9841 14.6595L12.1977 15.3168L11.6385 14.9106L11.0794 15.3168L11.293 14.6595L10.7338 14.2533H11.4249L11.6385 13.5959Z" fill="#D9D9D9"/>
<path d="M15.8238 13.5959L16.0374 14.2533H16.7285L16.1694 14.6595L16.383 15.3168L15.8238 14.9106L15.2647 15.3168L15.4783 14.6595L14.9191 14.2533H15.6102L15.8238 13.5959Z" fill="#D9D9D9"/>
</g>
<defs>
<clipPath id="clip0_143_435">
<rect width="36" height="36" rx="18" fill="white"/>
</clipPath>
</defs>
</svg>
