<svg width="33" height="34" viewBox="0 0 33 34" fill="none" xmlns="http://www.w3.org/2000/svg">
<path fill-rule="evenodd" clip-rule="evenodd" d="M16.2075 20.2592C21.8019 20.2592 26.3371 15.7241 26.3371 10.1296C26.3371 4.53519 21.8019 0 16.2075 0C10.6131 0 6.07788 4.53519 6.07788 10.1296C6.07788 15.7241 10.6131 20.2592 16.2075 20.2592ZM16.2074 17.2204C20.1235 17.2204 23.2981 14.0457 23.2981 10.1296C23.2981 6.21352 20.1235 3.03889 16.2074 3.03889C12.2913 3.03889 9.11666 6.21352 9.11666 10.1296C9.11666 14.0457 12.2913 17.2204 16.2074 17.2204Z" fill="#0C58A2"/>
<path fill-rule="evenodd" clip-rule="evenodd" d="M8.53906 16.7481C3.44823 20.2083 0 26.6557 0 32.8816C0.981851 34.1907 3.0215 33.9418 6.4325 33.5256L6.43253 33.5256C8.75371 33.2424 11.7099 32.8816 15.4 32.8816C18.9226 32.8816 22.1052 33.1282 24.7796 33.3354C29.0236 33.6641 31.9878 33.8938 33 32.8816C33 26.5032 29.3808 19.8923 24.0839 16.4993C23.1072 17.7055 21.8589 18.6829 20.4322 19.3385C24.1565 21.2201 27.35 25.2121 27.35 29.0078C27.35 29.5111 25.4309 29.4031 22.5452 29.2406C20.6794 29.1356 18.4096 29.0078 15.9931 29.0078C13.5441 29.0078 11.3136 29.139 9.51554 29.2448C6.79533 29.4049 5.06481 29.5067 5.06481 29.0078C5.06481 25.1516 7.89001 21.0928 11.7954 19.2502C10.5449 18.6442 9.43791 17.7886 8.53906 16.7481Z" fill="#0C58A2"/>
</svg>
