<svg width="51" height="36" viewBox="0 0 51 36" fill="none" xmlns="http://www.w3.org/2000/svg">
<mask id="path-1-inside-1_104_104" fill="white">
<path fill-rule="evenodd" clip-rule="evenodd" d="M21.0067 35.768C22.936 35.768 24.5 34.1742 24.5 32.2081C24.5 30.242 22.936 28.6482 21.0067 28.6482C19.0774 28.6482 17.5134 30.242 17.5134 32.2081C17.5134 34.1742 19.0774 35.768 21.0067 35.768ZM20.9719 34.7612C22.1411 34.7612 23.089 33.7952 23.089 32.6037C23.089 31.4122 22.1411 30.4463 20.9719 30.4463C19.8027 30.4463 18.8548 31.4122 18.8548 32.6037C18.8548 33.7952 19.8027 34.7612 20.9719 34.7612Z"/>
</mask>
<path fill-rule="evenodd" clip-rule="evenodd" d="M21.0067 35.768C22.936 35.768 24.5 34.1742 24.5 32.2081C24.5 30.242 22.936 28.6482 21.0067 28.6482C19.0774 28.6482 17.5134 30.242 17.5134 32.2081C17.5134 34.1742 19.0774 35.768 21.0067 35.768ZM20.9719 34.7612C22.1411 34.7612 23.089 33.7952 23.089 32.6037C23.089 31.4122 22.1411 30.4463 20.9719 30.4463C19.8027 30.4463 18.8548 31.4122 18.8548 32.6037C18.8548 33.7952 19.8027 34.7612 20.9719 34.7612Z" fill="#0C58A2"/>
<path d="M23.5 32.2081C23.5 33.6398 22.366 34.768 21.0067 34.768V36.768C23.506 36.768 25.5 34.7086 25.5 32.2081H23.5ZM21.0067 29.6482C22.366 29.6482 23.5 30.7764 23.5 32.2081H25.5C25.5 29.7076 23.506 27.6482 21.0067 27.6482V29.6482ZM18.5134 32.2081C18.5134 30.7764 19.6474 29.6482 21.0067 29.6482V27.6482C18.5074 27.6482 16.5134 29.7076 16.5134 32.2081H18.5134ZM21.0067 34.768C19.6474 34.768 18.5134 33.6398 18.5134 32.2081H16.5134C16.5134 34.7086 18.5074 36.768 21.0067 36.768V34.768ZM22.089 32.6037C22.089 33.2609 21.5711 33.7612 20.9719 33.7612V35.7612C22.7112 35.7612 24.089 34.3296 24.089 32.6037H22.089ZM20.9719 31.4463C21.5711 31.4463 22.089 31.9466 22.089 32.6037H24.089C24.089 30.8778 22.7112 29.4463 20.9719 29.4463V31.4463ZM19.8548 32.6037C19.8548 31.9466 20.3727 31.4463 20.9719 31.4463V29.4463C19.2327 29.4463 17.8548 30.8778 17.8548 32.6037H19.8548ZM20.9719 33.7612C20.3727 33.7612 19.8548 33.2609 19.8548 32.6037H17.8548C17.8548 34.3296 19.2327 35.7612 20.9719 35.7612V33.7612Z" fill="#0C58A2" mask="url(#path-1-inside-1_104_104)"/>
<mask id="path-3-inside-2_104_104" fill="white">
<ellipse cx="21.0958" cy="32.8378" rx="0.921034" ry="0.938604"/>
</mask>
<ellipse cx="21.0958" cy="32.8378" rx="0.921034" ry="0.938604" fill="#0C58A2"/>
<path d="M21.0169 32.8378C21.0169 32.8272 21.0221 32.8126 21.0334 32.8011C21.0449 32.7893 21.068 32.7764 21.0958 32.7764V34.7764C22.1745 34.7764 23.0169 33.8905 23.0169 32.8378H21.0169ZM21.0958 32.7764C21.1236 32.7764 21.1467 32.7893 21.1583 32.8011C21.1696 32.8126 21.1748 32.8272 21.1748 32.8378H19.1748C19.1748 33.8905 20.0171 34.7764 21.0958 34.7764V32.7764ZM21.1748 32.8378C21.1748 32.8483 21.1696 32.863 21.1583 32.8745C21.1467 32.8863 21.1236 32.8992 21.0958 32.8992V30.8992C20.0171 30.8992 19.1748 31.785 19.1748 32.8378H21.1748ZM21.0958 32.8992C21.068 32.8992 21.0449 32.8863 21.0334 32.8745C21.0221 32.863 21.0169 32.8483 21.0169 32.8378H23.0169C23.0169 31.785 22.1745 30.8992 21.0958 30.8992V32.8992Z" fill="#0C58A2" mask="url(#path-3-inside-2_104_104)"/>
<path d="M18.7932 32.8376H23.3984" stroke="#0C58A2"/>
<path d="M21.0957 35.4187V30.2564" stroke="#0C58A2"/>
<path d="M19.2458 34.7395L22.9464 30.9684" stroke="#0C58A2"/>
<path d="M18.7932 30.4912L22.9706 34.7483" stroke="#0C58A2"/>
<mask id="path-9-inside-3_104_104" fill="white">
<path fill-rule="evenodd" clip-rule="evenodd" d="M42.9933 35.768C44.9226 35.768 46.4866 34.1742 46.4866 32.2081C46.4866 30.242 44.9226 28.6482 42.9933 28.6482C41.064 28.6482 39.5 30.242 39.5 32.2081C39.5 34.1742 41.064 35.768 42.9933 35.768ZM42.9585 34.7612C44.1277 34.7612 45.0756 33.7952 45.0756 32.6037C45.0756 31.4122 44.1277 30.4463 42.9585 30.4463C41.7893 30.4463 40.8414 31.4122 40.8414 32.6037C40.8414 33.7952 41.7893 34.7612 42.9585 34.7612Z"/>
</mask>
<path fill-rule="evenodd" clip-rule="evenodd" d="M42.9933 35.768C44.9226 35.768 46.4866 34.1742 46.4866 32.2081C46.4866 30.242 44.9226 28.6482 42.9933 28.6482C41.064 28.6482 39.5 30.242 39.5 32.2081C39.5 34.1742 41.064 35.768 42.9933 35.768ZM42.9585 34.7612C44.1277 34.7612 45.0756 33.7952 45.0756 32.6037C45.0756 31.4122 44.1277 30.4463 42.9585 30.4463C41.7893 30.4463 40.8414 31.4122 40.8414 32.6037C40.8414 33.7952 41.7893 34.7612 42.9585 34.7612Z" fill="#0C58A2"/>
<path d="M45.4866 32.2081C45.4866 33.6398 44.3526 34.768 42.9933 34.768V36.768C45.4926 36.768 47.4866 34.7086 47.4866 32.2081H45.4866ZM42.9933 29.6482C44.3526 29.6482 45.4866 30.7764 45.4866 32.2081H47.4866C47.4866 29.7076 45.4926 27.6482 42.9933 27.6482V29.6482ZM40.5 32.2081C40.5 30.7764 41.634 29.6482 42.9933 29.6482V27.6482C40.494 27.6482 38.5 29.7076 38.5 32.2081H40.5ZM42.9933 34.768C41.634 34.768 40.5 33.6398 40.5 32.2081H38.5C38.5 34.7086 40.494 36.768 42.9933 36.768V34.768ZM44.0756 32.6037C44.0756 33.2609 43.5577 33.7612 42.9585 33.7612V35.7612C44.6977 35.7612 46.0756 34.3296 46.0756 32.6037H44.0756ZM42.9585 31.4463C43.5577 31.4463 44.0756 31.9466 44.0756 32.6037H46.0756C46.0756 30.8778 44.6977 29.4463 42.9585 29.4463V31.4463ZM41.8414 32.6037C41.8414 31.9466 42.3593 31.4463 42.9585 31.4463V29.4463C41.2192 29.4463 39.8414 30.8778 39.8414 32.6037H41.8414ZM42.9585 33.7612C42.3593 33.7612 41.8414 33.2609 41.8414 32.6037H39.8414C39.8414 34.3296 41.2192 35.7612 42.9585 35.7612V33.7612Z" fill="#0C58A2" mask="url(#path-9-inside-3_104_104)"/>
<mask id="path-11-inside-4_104_104" fill="white">
<ellipse cx="43.0824" cy="32.8378" rx="0.921034" ry="0.938604"/>
</mask>
<ellipse cx="43.0824" cy="32.8378" rx="0.921034" ry="0.938604" fill="#0C58A2"/>
<path d="M43.0034 32.8378C43.0034 32.8272 43.0087 32.8126 43.0199 32.8011C43.0315 32.7893 43.0546 32.7764 43.0824 32.7764V34.7764C44.1611 34.7764 45.0034 33.8905 45.0034 32.8378H43.0034ZM43.0824 32.7764C43.1102 32.7764 43.1333 32.7893 43.1449 32.8011C43.1562 32.8126 43.1614 32.8272 43.1614 32.8378H41.1614C41.1614 33.8905 42.0037 34.7764 43.0824 34.7764V32.7764ZM43.1614 32.8378C43.1614 32.8483 43.1562 32.863 43.1449 32.8745C43.1333 32.8863 43.1102 32.8992 43.0824 32.8992V30.8992C42.0037 30.8992 41.1614 31.785 41.1614 32.8378H43.1614ZM43.0824 32.8992C43.0546 32.8992 43.0315 32.8863 43.0199 32.8745C43.0087 32.863 43.0034 32.8483 43.0034 32.8378H45.0034C45.0034 31.785 44.1611 30.8992 43.0824 30.8992V32.8992Z" fill="#0C58A2" mask="url(#path-11-inside-4_104_104)"/>
<path d="M40.7798 32.8376H45.385" stroke="#0C58A2"/>
<path d="M43.0823 35.4187V30.2564" stroke="#0C58A2"/>
<path d="M41.2324 34.7395L44.933 30.9684" stroke="#0C58A2"/>
<path d="M40.7798 30.4912L44.9572 34.7483" stroke="#0C58A2"/>
<path d="M2 2.00005V2.00005C7.60025 2.00005 12.499 5.76967 13.9336 11.1831L15.7188 17.9197M46.7664 25.4632H23.2624C19.0962 25.4632 15.7188 22.0859 15.7188 17.9197V17.9197M15.7188 17.9197H41.411C44.5205 17.9197 47.237 15.8179 48.0177 12.808V12.808C49.0628 8.77908 46.2894 4.76093 42.1517 4.30921L21 2.00005" stroke="#0C58A2" stroke-width="4" stroke-linecap="round" stroke-linejoin="round"/>
</svg>
