<svg width="36" height="37" viewBox="0 0 36 37" fill="none" xmlns="http://www.w3.org/2000/svg">
<path d="M34.7232 8.82967L22.3345 1.20586C22.1882 1.11582 22.1151 1.0708 22.0627 1.10275C22.0104 1.1347 22.0171 1.22034 22.0303 1.39162L22.6179 8.98457C22.6185 8.99228 22.6187 8.99614 22.6187 9C22.6187 9.00386 22.6185 9.00772 22.6179 9.01543L22.0303 16.6084C22.0171 16.7797 22.0104 16.8653 22.0627 16.8973C22.1151 16.9292 22.1882 16.8842 22.3345 16.7941L34.7232 9.17033C34.8472 9.09403 34.9092 9.05588 34.9092 9C34.9092 8.94412 34.8472 8.90597 34.7232 8.82967Z" fill="#0C58A2" stroke="#0C58A2" stroke-linecap="round"/>
<path d="M2.49996 6.00016C4.3126 5.09376 19.2671 5.83029 22.0538 5.97628C22.3378 5.99116 22.6015 6.12705 22.7791 6.3491L24.0002 7.87529C24.2924 8.24051 24.2924 8.75949 24.0002 9.12473L22.8322 10.5848C22.6245 10.8444 22.308 10.9843 21.9765 10.9585C19.4211 10.759 8.32611 9.93167 7.00001 10.5C4.60521 11.5263 5.50001 15.7501 2.49996 16.5002C1.00004 16.8751 0.602677 6.94888 2.49996 6.00016Z" fill="#0C58A2"/>
<path d="M1.27692 28.1703L13.6662 35.7941C13.8125 35.8842 13.8857 35.9292 13.938 35.8973C13.9903 35.8653 13.9837 35.7797 13.9704 35.6084L13.3828 28.0154C13.3823 28.0077 13.382 28.0039 13.382 28C13.382 27.9961 13.3823 27.9923 13.3828 27.9846L13.9704 20.3916C13.9837 20.2203 13.9903 20.1347 13.938 20.1027C13.8857 20.0708 13.8125 20.1158 13.6662 20.2059L1.27692 27.8297C1.15292 27.906 1.09092 27.9441 1.09092 28C1.09092 28.0559 1.15292 28.094 1.27692 28.1703Z" fill="#0C58A2" stroke="#0C58A2" stroke-linecap="round"/>
<path d="M33.5017 30.9998C31.6889 31.9062 16.7336 31.1697 13.9469 31.0237C13.6629 31.0088 13.3992 30.873 13.2216 30.6509L12.0004 29.1247C11.7082 28.7595 11.7082 28.2405 12.0004 27.8753L13.1685 26.4152C13.3762 26.1556 13.6927 26.0157 14.0242 26.0415C16.5796 26.241 27.6753 27.0683 29.0014 26.5C31.3963 25.4737 30.5015 21.2499 33.5017 20.4998C35.0017 20.1249 35.3991 30.0511 33.5017 30.9998Z" fill="#0C58A2"/>
</svg>
