<svg width="18" height="18" viewBox="0 0 18 18" fill="none" xmlns="http://www.w3.org/2000/svg">
<path fill-rule="evenodd" clip-rule="evenodd" d="M9 0C9.31066 0 9.5625 0.25184 9.5625 0.5625V1.14478C13.4634 1.42009 16.5799 4.53658 16.8552 8.4375H17.4375C17.7482 8.4375 18 8.68934 18 9C18 9.31066 17.7482 9.5625 17.4375 9.5625H16.8552C16.5799 13.4634 13.4634 16.5799 9.5625 16.8552V17.4375C9.5625 17.7482 9.31066 18 9 18C8.68934 18 8.4375 17.7482 8.4375 17.4375V16.8552C4.53658 16.5799 1.42009 13.4634 1.14478 9.5625H0.5625C0.25184 9.5625 0 9.31066 0 9C0 8.68934 0.25184 8.4375 0.5625 8.4375H1.14478C1.42009 4.53658 4.53658 1.42009 8.4375 1.14478V0.5625C8.4375 0.25184 8.68934 0 9 0ZM8.4375 2.2731C5.15824 2.54364 2.54364 5.15824 2.2731 8.4375H2.8125C2.90548 8.4375 2.99319 8.46006 3.07045 8.5H3.39692C3.63541 5.79235 5.79235 3.63541 8.5 3.39692V3.07045C8.46006 2.99319 8.4375 2.90548 8.4375 2.8125V2.2731ZM9.5 3.39692C12.2077 3.63541 14.3646 5.79235 14.6031 8.5H14.9296C15.0068 8.46006 15.0945 8.4375 15.1875 8.4375H15.7269C15.4564 5.15824 12.8418 2.54364 9.5625 2.2731V2.8125C9.5625 2.90548 9.53994 2.99319 9.5 3.07045V3.39692ZM14.6031 9.5C14.3646 12.2077 12.2077 14.3646 9.5 14.6031V14.9296C9.53994 15.0068 9.5625 15.0945 9.5625 15.1875V15.7269C12.8418 15.4564 15.4564 12.8418 15.7269 9.5625H15.1875C15.0945 9.5625 15.0068 9.53994 14.9296 9.5H14.6031ZM8.5 14.6031C5.79235 14.3646 3.63541 12.2077 3.39692 9.5H3.07045C2.99319 9.53994 2.90548 9.5625 2.8125 9.5625H2.2731C2.54364 12.8418 5.15824 15.4564 8.4375 15.7269V15.1875C8.4375 15.0945 8.46006 15.0068 8.5 14.9296V14.6031ZM11.25 9C11.25 10.2426 10.2426 11.25 9 11.25C7.75736 11.25 6.75 10.2426 6.75 9C6.75 7.75736 7.75736 6.75 9 6.75C10.2426 6.75 11.25 7.75736 11.25 9Z" fill="black"/>
<path d="M9 0C9.31066 0 9.5625 0.25184 9.5625 0.5625V1.14478C13.4634 1.42009 16.5799 4.53658 16.8552 8.4375H17.4375C17.7482 8.4375 18 8.68934 18 9C18 9.31066 17.7482 9.5625 17.4375 9.5625H16.8552C16.5799 13.4634 13.4634 16.5799 9.5625 16.8552V17.4375C9.5625 17.7482 9.31066 18 9 18C8.68934 18 8.4375 17.7482 8.4375 17.4375V16.8552C4.53658 16.5799 1.42009 13.4634 1.14478 9.5625H0.5625C0.25184 9.5625 0 9.31066 0 9C0 8.68934 0.25184 8.4375 0.5625 8.4375H1.14478C1.42009 4.53658 4.53658 1.42009 8.4375 1.14478V0.5625C8.4375 0.25184 8.68934 0 9 0ZM8.4375 2.2731C5.15824 2.54364 2.54364 5.15824 2.2731 8.4375H3.40277C3.66662 5.78002 5.78002 3.66662 8.4375 3.40277V2.2731ZM9.5625 3.40277C12.22 3.66662 14.3334 5.78002 14.5972 8.4375H15.7269C15.4564 5.15824 12.8418 2.54364 9.5625 2.2731V3.40277ZM14.5972 9.5625C14.3334 12.22 12.22 14.3334 9.5625 14.5972V15.7269C12.8418 15.4564 15.4564 12.8418 15.7269 9.5625H14.5972ZM8.4375 14.5972C5.78002 14.3334 3.66662 12.22 3.40277 9.5625H2.2731C2.54364 12.8418 5.15824 15.4564 8.4375 15.7269V14.5972ZM11.25 9C11.25 7.75736 10.2426 6.75 9 6.75C7.75736 6.75 6.75 7.75736 6.75 9C6.75 10.2426 7.75736 11.25 9 11.25C10.2426 11.25 11.25 10.2426 11.25 9Z" fill="black"/>
</svg>
