<svg width="38" height="38" viewBox="0 0 38 38" fill="none" xmlns="http://www.w3.org/2000/svg">
<path d="M24 11V6C24 3.79086 22.2092 2 20 2H6C3.79087 2 2 3.79086 2 6V28C2 30.2091 3.79086 32 6 32H20C22.2092 32 24 30.2091 24 28V23" stroke="#0C58A2" stroke-width="3" stroke-linecap="round"/>
<path d="M2 2L13.6403 3.88761C15.577 4.20167 17 5.87404 17 7.83604V32.253C17 35.0389 14.2233 36.9716 11.6108 36.004L3.5 33L2 2Z" fill="#0C58A2"/>
<path d="M23.7133 17.16L29.18 21.26C29.3196 21.3647 29.3894 21.4171 29.4447 21.3894C29.5 21.3618 29.5 21.2745 29.5 21.1V17V12.9C29.5 12.7255 29.5 12.6382 29.4447 12.6106C29.3894 12.5829 29.3196 12.6353 29.18 12.74L23.7133 16.84C23.6155 16.9133 23.5667 16.95 23.5667 17C23.5667 17.05 23.6155 17.0867 23.7133 17.16Z" fill="#0C58A2"/>
<path d="M29.5 17V12.9C29.5 12.7255 29.5 12.6382 29.4447 12.6106C29.3894 12.5829 29.3196 12.6353 29.18 12.74L23.7133 16.84C23.6155 16.9133 23.5667 16.95 23.5667 17C23.5667 17.05 23.6155 17.0867 23.7133 17.16L29.18 21.26C29.3196 21.3647 29.3894 21.4171 29.4447 21.3894C29.5 21.3618 29.5 21.2745 29.5 21.1V17ZM29.5 17H36" stroke="#0C58A2" stroke-width="3" stroke-linecap="round"/>
</svg>
