<svg width="38" height="38" viewBox="0 0 38 38" fill="none" xmlns="http://www.w3.org/2000/svg">
<path d="M24 11V6C24 3.79086 22.2091 2 20 2H6C3.79086 2 2 3.79086 2 6V28C2 30.2091 3.79086 32 6 32H20C22.2091 32 24 30.2091 24 28V23" stroke="#0C58A2" stroke-width="3" stroke-linecap="round"/>
<path d="M2 2L13.6403 3.88761C15.577 4.20167 17 5.87404 17 7.83604V32.253C17 35.0389 14.2232 36.9716 11.6107 36.004L3.5 33L2 2Z" fill="#0C58A2"/>
<path d="M35.7867 16.84L30.32 12.74C30.1804 12.6353 30.1106 12.5829 30.0553 12.6106C30 12.6382 30 12.7255 30 12.9V17V21.1C30 21.2745 30 21.3618 30.0553 21.3894C30.1106 21.4171 30.1804 21.3647 30.32 21.26L35.7867 17.16L35.7867 17.16C35.8844 17.0867 35.9333 17.05 35.9333 17C35.9333 16.95 35.8844 16.9133 35.7867 16.84Z" fill="#0C58A2"/>
<path d="M30 17V21.1C30 21.2745 30 21.3618 30.0553 21.3894C30.1106 21.4171 30.1804 21.3647 30.32 21.26L35.7867 17.16C35.8844 17.0867 35.9333 17.05 35.9333 17C35.9333 16.95 35.8844 16.9133 35.7867 16.84L30.32 12.74C30.1804 12.6353 30.1106 12.5829 30.0553 12.6106C30 12.6382 30 12.7255 30 12.9V17ZM30 17H23.5" stroke="#0C58A2" stroke-width="3" stroke-linecap="round"/>
</svg>
